<?xml version="1.0" standalone="no"?>
<svg
  width="600"
  height="600"
  viewBox="0 0 600 600"
  xmlns="http://www.w3.org/2000/svg"
>
  <g transform="translate(300,300)">
    <path d="M129.2,-182.8C173.3,-172.7,219,-146.8,224.8,-109.8C230.6,-72.8,196.5,-24.7,183.2,22.2C169.9,69,177.5,114.7,161.9,149.6C146.2,184.4,107.2,208.3,67.4,211.8C27.7,215.2,-12.8,198.3,-50.5,182.4C-88.1,166.5,-123.1,151.7,-153.8,127.2C-184.5,102.6,-211,68.4,-224.3,27.5C-237.5,-13.4,-237.5,-60.9,-221.7,-103.6C-205.9,-146.3,-174.3,-184.2,-134.7,-196.5C-95.2,-208.7,-47.6,-195.4,-2.5,-191.4C42.5,-187.5,85.1,-193,129.2,-182.8Z" fill="#8ed1fc" />
  </g>
</svg>
    